# xmcd CD database file
#
# Track frame offsets:
#	150
#	17229
#	32359
#	55003
#	70939
#	96146
#	113095
#	132220
#	157751
#	173674
#	192410
#
# Disc length: 2802 seconds
#
# Revision: 0
# Processed by: cddbd v1.5.2PL0 Copyright (c) Steve Scherf et al.
# Submitted via: CDex 1.83
#
DISCID=820af00b
DTITLE=Ramon Valle - Take Off
DYEAR=2015
DGENRE=Jazz
TTITLE0=All The Things You Are
TTITLE1=Steps In The Night
TTITLE2=Es Una Historia
TTITLE3=Trance Dance In Blue
TTITLE4=Hallelujah
TTITLE5=Principe Enano
TTITLE6=Y Si Volviera
TTITLE7=Levitando
TTITLE8=Cinco Hermanas
TTITLE9=What Are You Doing The Rest Of Your Life?
TTITLE10=Kimbara Pa Nico
EXTD=YEAR: 2015
EXTT0=
EXTT1=
EXTT2=
EXTT3=
EXTT4=
EXTT5=
EXTT6=
EXTT7=
EXTT8=
EXTT9=
EXTT10=
PLAYORDER=
